<?xml version="1.0" encoding="UTF-8"?>
<svg width="700pt" height="700pt" version="1.1" viewBox="0 -30 700 700" xmlns="http://www.w3.org/2000/svg" xmlns:xlink="http://www.w3.org/1999/xlink">
 <g>
  <path d="m350 267.12c49.281 0 89.602-40.32 89.602-89.602s-40.32-89.602-89.602-89.602-89.602 40.32-89.602 89.602 40.32 89.602 89.602 89.602zm0-156.8c36.961 0 67.199 30.238 67.199 67.199 0 36.961-30.238 67.199-67.199 67.199s-67.199-30.238-67.199-67.199c0-36.961 30.238-67.199 67.199-67.199z"/>
  <path d="m220.08 472.08h259.28c5.6016 0 11.762-2.2383 15.68-6.7188 3.9219-4.4805 6.1602-10.641 5.6016-16.801-5.6016-85.68-70.559-150.08-151.2-150.08s-145.04 64.961-150.64 150.64c-0.55859 6.1602 1.6797 12.32 5.6016 16.801 4.4766 3.918 10.078 6.1562 15.676 6.1562zm129.92-151.2c68.32 0 123.76 55.441 128.8 128.8h-257.6c5.0391-73.359 60.48-128.8 128.8-128.8z"/>
  <use x="70" y="644" xlink:href="#u"/>
  <use x="90.550781" y="644" xlink:href="#c"/>
  <use x="104.359375" y="644" xlink:href="#a"/>
  <use x="123.347656" y="644" xlink:href="#e"/>
  <use x="142.242188" y="644" xlink:href="#b"/>
  <use x="155.628906" y="644" xlink:href="#a"/>
  <use x="174.617188" y="644" xlink:href="#j"/>
  <use x="204.410156" y="644" xlink:href="#i"/>
  <use x="224.453125" y="644" xlink:href="#h"/>
  <use x="252.453125" y="644" xlink:href="#g"/>
  <use x="262.867188" y="644" xlink:href="#t"/>
  <use x="272.46875" y="644" xlink:href="#s"/>
  <use x="290.71875" y="644" xlink:href="#e"/>
  <use x="309.613281" y="644" xlink:href="#f"/>
  <use x="70" y="672" xlink:href="#r"/>
  <use x="82.183594" y="672" xlink:href="#c"/>
  <use x="95.992188" y="672" xlink:href="#d"/>
  <use x="115.226562" y="672" xlink:href="#q"/>
  <use x="154.152344" y="672" xlink:href="#b"/>
  <use x="167.535156" y="672" xlink:href="#p"/>
  <use x="187.46875" y="672" xlink:href="#a"/>
  <use x="216.207031" y="672" xlink:href="#o"/>
  <use x="239.640625" y="672" xlink:href="#d"/>
  <use x="258.878906" y="672" xlink:href="#n"/>
  <use x="278.8125" y="672" xlink:href="#f"/>
  <use x="308.492188" y="672" xlink:href="#m"/>
  <use x="329.015625" y="672" xlink:href="#c"/>
  <use x="342.820312" y="672" xlink:href="#d"/>
  <use x="362.058594" y="672" xlink:href="#l"/>
  <use x="371.65625" y="672" xlink:href="#a"/>
  <use x="390.648438" y="672" xlink:href="#k"/>
  <use x="407.242188" y="672" xlink:href="#b"/>
 </g>
</svg>
